<?xml version="1.0" encoding="iso-8859-1"?>
<!-- Generator: Adobe Illustrator 19.0.0, SVG Export Plug-In . SVG Version: 6.00 Build 0)  -->
<svg version="1.1" id="Capa_1" xmlns="http://www.w3.org/2000/svg" xmlns:xlink="http://www.w3.org/1999/xlink" x="0px" y="0px"
	 viewBox="0 0 512 512" style="enable-background:new 0 0 512 512;" xml:space="preserve">
<g>
	<g>
		<path d="M425.854,337.25c-1.646-3.99-5.542-6.583-9.854-6.583h-21.333c-2.833,0-5.542,1.125-7.542,3.125L277.333,443.583V10.667
			C277.333,4.771,272.563,0,266.667,0h-21.333c-5.896,0-10.667,4.771-10.667,10.667v432.917L124.875,333.792
			c-2-2-4.708-3.125-7.542-3.125H96c-4.313,0-8.208,2.594-9.854,6.583c-0.552,1.323-0.813,2.708-0.813,4.083
			c0,2.771,1.083,5.5,3.125,7.542l160,160c4.167,4.167,10.917,4.167,15.083,0l160-160C426.583,345.813,427.51,341.26,425.854,337.25
			z"/>
	</g>
</g>
<g>
</g>
<g>
</g>
<g>
</g>
<g>
</g>
<g>
</g>
<g>
</g>
<g>
</g>
<g>
</g>
<g>
</g>
<g>
</g>
<g>
</g>
<g>
</g>
<g>
</g>
<g>
</g>
<g>
</g>
</svg>
